<svg width="144" height="36" viewBox="0 0 144 36" fill="none" xmlns="http://www.w3.org/2000/svg">
<path d="M82.25 7.05371C83.6824 7.05371 84.8714 7.37869 85.8174 8.02734C86.7903 8.64897 87.5744 9.56797 88.1689 10.7842L88.3311 7.54004H95.0605V26.0273C95.0605 28.2975 94.6145 30.1627 93.7227 31.6221C92.8309 33.1082 91.5744 34.2026 89.9531 34.9053C88.3586 35.635 86.4934 36 84.3584 36C82.4396 36 80.8044 35.7429 79.4531 35.2295C78.1019 34.716 77.0068 33.9868 76.1689 33.041C75.3581 32.1221 74.7901 31.0271 74.4658 29.7568L81.6826 29.3516C81.8448 29.7839 82.1419 30.122 82.5742 30.3652C83.0337 30.6085 83.6287 30.7295 84.3584 30.7295C85.6285 30.7294 86.5747 30.4054 87.1963 29.7568C87.8448 29.1352 88.1689 28.2431 88.1689 27.0811V25.2158C87.6825 26.1347 86.9795 26.8787 86.0605 27.4463C85.1687 28.0137 83.9254 28.2969 82.3311 28.2969C80.6554 28.2969 79.1554 27.8649 77.8311 27C76.5067 26.1351 75.4657 24.9321 74.709 23.3916C73.9524 21.8241 73.5742 20.0268 73.5742 18C73.5742 15.7297 73.9392 13.7837 74.6689 12.1621C75.4257 10.5135 76.4527 9.25646 77.75 8.3916C79.0473 7.49977 80.5473 7.05371 82.25 7.05371ZM108.829 7.05371C110.91 7.05375 112.748 7.55375 114.343 8.55371C115.937 9.52666 117.18 10.8918 118.072 12.6484C118.991 14.3781 119.45 16.3782 119.45 18.6484V20.2705H105.262C105.397 21.4325 105.802 22.3517 106.478 23.0273C107.18 23.6758 108.031 23.9999 109.031 24C109.788 24 110.45 23.8239 111.018 23.4727C111.585 23.0943 111.977 22.5943 112.193 21.9727L118.964 22.4189C118.126 24.9324 116.869 26.8105 115.193 28.0537C113.518 29.2969 111.397 29.9189 108.829 29.9189C106.802 29.9189 104.977 29.4599 103.355 28.541C101.761 27.5951 100.505 26.2701 99.5859 24.5674C98.667 22.8376 98.207 20.8107 98.207 18.4863C98.2071 16.2431 98.653 14.2701 99.5449 12.5674C100.464 10.8377 101.721 9.48663 103.315 8.51367C104.91 7.5407 106.748 7.05371 108.829 7.05371ZM23.1895 29.4326H15.9727L14.8965 24.6895H8.29199L7.21582 29.4326H0L7.29688 0.648438H15.8916L23.1895 29.4326ZM40.7686 24.1621H47.2549V29.4326H26.1738V24.1621H33.876V12.8105H26.5791V7.54004H40.7686V24.1621ZM63.4551 7.05371C64.9685 7.05374 66.1846 7.39178 67.1035 8.06738C68.0224 8.74306 68.6984 9.68906 69.1309 10.9053C69.5633 12.1215 69.7793 13.5545 69.7793 15.2031V29.4326H62.8877V16.6221C62.8877 15.244 62.6845 14.2707 62.2793 13.7031C61.8739 13.1085 61.2789 12.8105 60.4951 12.8105C59.9818 12.8106 59.4954 12.9728 59.0361 13.2969C58.6037 13.5942 58.2387 14.0542 57.9414 14.6758C57.6712 15.2974 57.5361 16.0814 57.5361 17.0273V29.4326H50.6445V7.54004H56.9277L57.0527 11.3828C57.2568 10.8306 57.4975 10.3327 57.7793 9.8916C58.4009 8.91874 59.185 8.20259 60.1309 7.74316C61.1038 7.28378 62.2119 7.05371 63.4551 7.05371ZM129.407 0.648438C131.975 0.648438 133.894 1.29746 135.164 2.59473C136.461 3.865 137.11 5.78399 137.11 8.35156V24.1621H143.678V29.4326H122.597V24.1621H130.219V8.27051C130.219 7.48686 130.016 6.90573 129.61 6.52734C129.232 6.12196 128.651 5.91897 127.867 5.91895H123.407V0.648438H129.407ZM84.5205 12.3242C83.3043 12.3242 82.3583 12.7703 81.6826 13.6621C81.034 14.5539 80.709 15.9322 80.709 17.7969C80.709 19.6617 81.034 21.0137 81.6826 21.8516C82.3583 22.6893 83.3044 23.1084 84.5205 23.1084C85.5745 23.1083 86.4396 22.6893 87.1152 21.8516C87.8179 21.0137 88.1689 19.6617 88.1689 17.7969C88.1689 16.5538 88.0069 15.5265 87.6826 14.7158C87.3853 13.9051 86.9523 13.311 86.3848 12.9326C85.8443 12.5273 85.2231 12.3243 84.5205 12.3242ZM9.68164 18.5674H13.5078L11.5947 10.1348L9.68164 18.5674ZM108.748 12.9727C107.802 12.9727 107.031 13.2436 106.437 13.7842C105.869 14.2977 105.518 15.0409 105.383 16.0137H112.112C112.004 15.0408 111.653 14.2977 111.059 13.7842C110.464 13.2437 109.694 12.9727 108.748 12.9727ZM40.7275 5.35156H33.8359V0H40.7275V5.35156Z" fill="black"/>
</svg>
